<svg width="255.901" height="232.813" viewBox="0 0 157.124 142.948" xml:space="preserve" xmlns="http://www.w3.org/2000/svg">
   <path d="M7.528 0a3.167 3.167 0 0 0-2.253.93 3.172 3.172 0 0 0-.931 2.254v61.95a3.227 3.227 0 0 0 .25 1.243 3.17 3.17 0 0 0 .68 1.011 3.19 3.19 0 0 0 1.611.867c.208.042.422.064.643.064h27.418L.343 119.072a1.966 1.966 0 0 0-.288.666 2.208 2.208 0 0 0-.043.725c.026.243.09.48.192.7.103.22.243.422.42.592L22.277 142.5c.177.17.373.29.576.363.203.072.413.098.618.076.206-.021.406-.09.59-.202.183-.113.35-.272.487-.474l48.012-70.1c.58-.838 1.91-2.537 2.177-3.61l.227-3.42V3.185a3.227 3.227 0 0 0-.25-1.242A3.163 3.163 0 0 0 73.021.249 3.168 3.168 0 0 0 71.78 0ZM89.688 0a3.167 3.167 0 0 0-2.253.93 3.172 3.172 0 0 0-.931 2.254v61.95a3.227 3.227 0 0 0 .25 1.243 3.17 3.17 0 0 0 .68 1.011 3.19 3.19 0 0 0 1.611.867c.208.042.423.064.643.064h27.418l-34.603 50.753a1.966 1.966 0 0 0-.287.666 2.208 2.208 0 0 0-.044.725c.026.243.09.48.192.7.103.22.243.422.42.592l21.653 20.746c.177.17.373.29.576.363a1.396 1.396 0 0 0 1.208-.126c.183-.113.35-.272.488-.474l48.011-70.1c.58-.838 1.91-2.537 2.177-3.61l.227-3.42V3.185a3.227 3.227 0 0 0-.25-1.242 3.163 3.163 0 0 0-1.693-1.693A3.168 3.168 0 0 0 153.94 0Z" style="stroke-width:.614003"/>
</svg>
